<?xml version="1.0" encoding="utf-8"?>
<!-- Generator: Adobe Illustrator 21.1.0, SVG Export Plug-In . SVG Version: 6.00 Build 0)  -->
<!DOCTYPE svg PUBLIC "-//W3C//DTD SVG 1.1//EN" "http://www.w3.org/Graphics/SVG/1.1/DTD/svg11.dtd">
<svg version="1.1" id="_x2014_ÎÓÈ_1" xmlns="http://www.w3.org/2000/svg" xmlns:xlink="http://www.w3.org/1999/xlink" x="0px"
	 y="0px" viewBox="0 0 90 88.7" enable-background="new 0 0 90 88.7" xml:space="preserve">
<g>
	<polygon fill="#FFFFFF" points="37.8,23.5 24.1,44.9 38.5,24.2 	"/>
	<polygon fill="#FFFFFF" points="39.3,24.9 38.9,24.6 27.4,48.3 39.1,26.3 	"/>
	<polygon fill="#FFFFFF" points="21.3,41 37.4,23.1 37.1,22.8 37.1,22.1 	"/>
	<path fill="#FFFFFF" d="M45.5,9.4L45,0l-0.5,9.4c0.2-0.1,0.3-0.1,0.5-0.1C45.2,9.3,45.3,9.3,45.5,9.4z"/>
	<polygon fill="#FFFFFF" points="37.1,21.4 37.1,20.1 19.3,36.7 	"/>
	<path fill="#FFFFFF" d="M38.2,17.7L18.1,32.1l19-12.4v-0.6c0-0.6,0.5-1.2,1.2-1.2c0.1,0,0.3,0,0.4,0.1l0.2-0.1
		c0.1-0.5,0.6-0.9,1.1-0.9c0,0,0,0,0.1,0v-2.6l3.4-3v-0.5c0-0.5,0.2-0.9,0.6-1.2l-3.8-9.2l3.1,10.2l-7.7-9l6.5,9.3L31.3,3.7l9.7,7.8
		L27.4,6.4l12.6,5.8l-16-2.4l15.2,3.4l-17.9,0.5l17.3,0.5L19.3,18l18.9-2.6l-20.1,7.2l20-6.1L17.7,27.3L38.2,17.7z"/>
	<polygon fill="#FFFFFF" points="38.7,29.6 31.3,51 38.4,32.8 	"/>
	<polygon fill="#FFFFFF" points="52.9,22.1 52.9,22.8 52.6,23.1 68.7,41 	"/>
	<path fill="#FFFFFF" d="M46.5,10.8v0.5l0,0l3.4,3V17c0,0,0,0,0,0c0.6,0,1.1,0.4,1.2,1l0.2,0.1c0.1-0.1,0.3-0.1,0.5-0.1
		c0.6,0,1.2,0.5,1.2,1.2v0.6l19,12.4L51.8,17.7l20.5,9.7L51.9,16.5l20,6.1l-20.1-7.2L70.7,18l-19.3-3.8l17.3-0.5l-17.9-0.5l15.2-3.4
		l-16,2.4l12.6-5.8l-13.6,5.1l9.7-7.8l-10.9,7.3l6.5-9.3l-7.7,9l3.1-10.2l-3.8,9.2C46.3,9.9,46.5,10.3,46.5,10.8z"/>
	<polygon fill="#FFFFFF" points="52.9,20.1 52.9,21.4 70.7,36.7 	"/>
	<polygon fill="#FFFFFF" points="51.3,29.6 51.6,32.8 58.7,51 	"/>
	<polygon fill="#FFFFFF" points="51.1,24.6 50.7,24.9 50.9,26.3 62.6,48.3 	"/>
	<polygon fill="#FFFFFF" points="52.2,23.5 51.5,24.2 65.9,44.9 	"/>
	<polygon fill="#FFFFFF" points="37.9,45.4 37.8,45.4 37.7,46 40.1,46.4 	"/>
	<polygon fill="#FFFFFF" points="38,44.3 37.9,44.3 37.9,44.9 40.2,45.3 	"/>
	<polygon fill="#FFFFFF" points="37.7,46.6 37.7,46.6 37.6,47.1 40.1,47.6 	"/>
	<polygon fill="#FFFFFF" points="38.4,40.9 38.3,40.9 38.3,41.5 40.5,41.8 	"/>
	<polygon fill="#FFFFFF" points="38.6,38.6 38.6,38.6 38.5,39.2 40.7,39.4 	"/>
	<polygon fill="#FFFFFF" points="38.5,39.7 38.5,39.7 38.4,40.3 40.6,40.6 	"/>
	<polygon fill="#FFFFFF" points="37.2,51.1 37.2,51.1 37.1,51.7 39.7,52.3 	"/>
	<polygon fill="#FFFFFF" points="38.1,43.2 38.1,43.1 38,43.7 40.3,44.1 	"/>
	<polygon fill="#FFFFFF" points="38.2,42 38.2,42 38.1,42.6 40.4,42.9 	"/>
	<polygon fill="#FFFFFF" points="37.6,47.7 37.6,47.7 37.5,48.3 40,48.8 	"/>
	<polygon fill="#FFFFFF" points="37.1,52.3 37,52.2 37,52.8 39.6,53.5 	"/>
	<polygon fill="#FFFFFF" points="37.4,50 37.3,50 37.2,50.6 39.8,51.1 	"/>
	<polygon fill="#FFFFFF" points="38.7,38 40.7,38.2 38.8,37.5 38.7,37.5 	"/>
	<polygon fill="#FFFFFF" points="37.5,48.9 37.4,48.8 37.4,49.4 39.9,50 	"/>
	<polygon fill="#FFFFFF" points="40,26.1 40,26.7 40,26.7 41.6,26.5 40,26.1 	"/>
	<polygon fill="#FFFFFF" points="39.8,28.3 39.7,28.9 39.7,28.9 41.4,28.8 39.8,28.3 	"/>
	<polygon fill="#FFFFFF" points="40.2,24.9 40.2,24.9 40.1,25.5 40.1,25.5 41.7,25.3 	"/>
	<polygon fill="#FFFFFF" points="37,53.4 36.9,53.4 36.9,53.7 39.5,54.7 	"/>
	<polygon fill="#FFFFFF" points="39.9,27.2 39.8,27.8 39.9,27.8 41.5,27.7 39.9,27.2 	"/>
	<polygon fill="#FFFFFF" points="39.1,34 39,34.6 39.1,34.6 41,34.7 39.1,34 	"/>
	<polygon fill="#FFFFFF" points="39.6,29.5 39.6,30.1 39.6,30.1 41.3,30 39.6,29.5 	"/>
	<polygon fill="#FFFFFF" points="39,35.2 38.9,35.8 38.9,35.8 40.9,35.9 39,35.2 	"/>
	<polygon fill="#FFFFFF" points="39.5,30.6 39.4,31.2 39.5,31.2 41.3,31.2 39.5,30.6 	"/>
	<polygon fill="#FFFFFF" points="39.2,32.9 39.2,33.5 39.2,33.5 41.1,33.5 39.3,32.9 	"/>
	<polygon fill="#FFFFFF" points="39.4,31.8 39.3,32.3 39.3,32.3 41.2,32.4 39.4,31.8 	"/>
	<polygon fill="#FFFFFF" points="51.6,54.2 53.1,53.5 53,52.9 50.7,53.5 53,52.4 52.9,51.8 50.6,52.3 52.8,51.2 52.8,50.6 
		50.5,51.1 52.7,50.1 52.6,49.5 50.4,49.9 52.6,48.9 52.5,48.3 50.4,48.7 52.5,47.8 52.4,47.2 50.3,47.5 52.3,46.6 52.3,46 
		50.2,46.3 52.2,45.5 52.1,44.9 50.1,45.1 52.1,44.3 52,43.7 50,43.9 51.9,43.2 51.9,42.6 50,42.7 51.8,42 51.7,41.4 49.9,41.5 
		51.7,40.9 51.6,40.2 49.8,40.3 51.5,39.7 51.5,39.1 49.7,39.1 51.4,38.6 51.3,37.9 49.6,37.9 51.3,37.4 49.2,37.8 50.5,54.7 	"/>
	<rect x="42.9" y="14.8" fill="#FFFFFF" width="4.2" height="2.7"/>
	<polygon fill="#FFFFFF" points="48.1,17.4 49.1,17.4 49.1,15 48.1,14.8 	"/>
	<polygon fill="#FFFFFF" points="41,15 41,17.4 41.9,17.4 41.9,14.8 	"/>
	<polygon fill="#FFFFFF" points="47.4,13.9 48.8,14.5 46,12 	"/>
	<polygon fill="#FFFFFF" points="42.7,13.9 44.1,12 41.3,14.5 	"/>
	<path fill="#FFFFFF" d="M45.6,10.8c0-0.4-0.3-0.6-0.6-0.6c-0.4,0-0.6,0.3-0.6,0.6v0.7h1.3V10.8z"/>
	<path fill="#FFFFFF" d="M47.1,45.1h-0.6v-3c0-1-0.7-1.7-1.5-1.7c-0.8,0-1.5,0.8-1.5,1.7v3h-0.6v0.4h4.1V45.1z M46.1,45.1h-2.2v-3
		c0-0.7,0.5-1.3,1.1-1.3c0.6,0,1.1,0.6,1.1,1.3L46.1,45.1z"/>
	<polygon fill="#FFFFFF" points="47.7,45.3 47.7,45.6 49.2,45.6 49.2,45.1 	"/>
	<polygon fill="#FFFFFF" points="49.1,43.9 47.1,44.2 47.1,44.5 49.1,44.4 	"/>
	<polygon fill="#FFFFFF" points="49.6,50.3 49.5,49.8 45,50.5 	"/>
	<path fill="#FFFFFF" d="M48.9,40.9l0-0.5l-2.5,0.3c0.1,0.1,0.1,0.1,0.2,0.2L48.9,40.9z"/>
	<path fill="#FFFFFF" d="M49,42.1l0-0.5L47,41.8c0,0.1,0,0.2,0,0.3L49,42.1z"/>
	<polygon fill="#FFFFFF" points="49,43.2 49,42.7 47.1,43 47.1,43.3 	"/>
	<polygon fill="#FFFFFF" points="45,48.1 49.4,47.9 49.3,47.4 	"/>
	<polygon fill="#FFFFFF" points="45,52.9 49.7,52.6 49.7,52.1 	"/>
	<polygon fill="#FFFFFF" points="48.8,39.7 48.7,39.2 45,39.7 	"/>
	<polygon fill="#FFFFFF" points="45,46.9 49.3,46.8 49.3,46.2 	"/>
	<polygon fill="#FFFFFF" points="49.8,53.8 49.8,53.3 45,54.1 	"/>
	<polygon fill="#FFFFFF" points="45,49.3 49.5,49.1 49.4,48.6 	"/>
	<polygon fill="#FFFFFF" points="45,38.5 48.7,38.5 48.7,38 	"/>
	<polygon fill="#FFFFFF" points="47.1,31.1 47.1,31.4 48.2,31.5 48.1,31 	"/>
	<polygon fill="#FFFFFF" points="45,25.4 47.7,25.6 47.7,25.1 	"/>
	<polygon fill="#FFFFFF" points="47.8,26.8 47.8,26.3 45,26.6 	"/>
	<polygon fill="#FFFFFF" points="49.9,54.5 45,55.2 49.9,54.7 	"/>
	<polygon fill="#FFFFFF" points="49.6,50.9 45,51.7 49.6,51.5 	"/>
	<path fill="#FFFFFF" d="M46.1,27.7c0.1,0.1,0.2,0.1,0.3,0.2l1.5,0.1l0-0.5L46.1,27.7z"/>
	<polygon fill="#FFFFFF" points="45,33.7 48.3,33.8 48.3,33.3 	"/>
	<polygon fill="#FFFFFF" points="45,34.9 48.4,35 48.4,34.5 	"/>
	<polygon fill="#FFFFFF" points="47.7,32.2 47.7,32.6 48.3,32.7 48.2,32.2 	"/>
	<polygon fill="#FFFFFF" points="47.1,29.9 47.1,30.3 48.1,30.3 48.1,29.8 	"/>
	<path fill="#FFFFFF" d="M47,28.8c0,0.1,0.1,0.2,0.1,0.3l1,0l0-0.5L47,28.8z"/>
	<polygon fill="#FFFFFF" points="48.5,36.2 48.5,35.7 45,36.1 	"/>
	<path fill="#FFFFFF" d="M43.5,29.2v3h-0.6v0.4h4.1v-0.4h-0.6v-3c0-1-0.7-1.7-1.5-1.7C44.2,27.4,43.5,28.2,43.5,29.2z M46.1,29.2
		l0,3h-2.2v-3c0-0.7,0.5-1.3,1.1-1.3C45.6,27.9,46.1,28.5,46.1,29.2z"/>
	<path fill="#FFFFFF" d="M38.1,22.5l2.1,2h0.3l-1.9-2.2l1.2-0.4l1.9,2.6h0.2l-1.3-2.7h4.1l0.3,2.7h0.2l0-0.3l2.5,0.2l0-0.5l-2.5,0.2
		l0.1-1.2l2.3,0.2l0-0.5L45.3,23l0.1-1.2h4l-1.3,2.7h0.1l0.9,11.8c-1.4,0.1-2.7,0.2-4.1,0.2c-2.1,0-4.1-0.1-6.2-0.4
		c-0.4,0.2-0.7,0.4-1.1,0.5c2.4,0.4,4.8,0.6,7.2,0.6c2.4,0,4.8-0.2,7.2-0.6c-0.4-0.2-0.7-0.4-1.1-0.5c0,0,0,0,0,0l-0.1-0.5l-1.6-0.1
		l1.5-0.4l-0.1-0.7l-1.5-0.2l1.5-0.3l-0.1-0.7l-1.5-0.2l1.4-0.3l-0.1-0.7l-1.4-0.2l1.4-0.3L50.5,31l-1.4-0.3l1.3-0.2l-0.1-0.7
		l-1.3-0.3l1.3-0.2l-0.1-0.7L49,28.4l1.2-0.1l-0.1-0.7l-1.2-0.4l1.2-0.1L50,26.4L48.8,26l1.1,0l-0.1-0.7l-1.1-0.5l1.1,0l0-0.2h0
		l2.1-2v-0.6l-2.1-1H45h-4.9l-2.1,1V22.5z M50.2,21.9l1.2,0.4l-1.9,2.2l-0.1-0.6L49,23.7l0.1-0.1l0.3,0l-0.1-0.4L50.2,21.9z"/>
	<path fill="#FFFFFF" d="M40.1,17.8c-0.2,0-0.3,0.1-0.3,0.3v2.6l0.2-0.1h0.3v-1.8h3.9v-0.6h-3.9v-0.2C40.3,18,40.2,17.8,40.1,17.8z"
		/>
	<path fill="#FFFFFF" d="M49.9,17.8c-0.2,0-0.3,0.1-0.3,0.3v2.5H50l0.2,0.1v-1.6l1.2,0.7c0,0,0.1,0,0.1,0c0.1,0,0.2,0,0.2-0.1
		c0.1,0.1,0.1,0.2,0,0.3c0,0.1-0.1,0.1-0.2,0.1c0,0-0.1,0-0.1,0l0,0v1.3l0.6,0.3v-2.5c0-0.2-0.1-0.3-0.3-0.3c-0.2,0-0.3,0.1-0.3,0.3
		v0.1l-1.2-0.7v-0.4C50.2,18,50.1,17.8,49.9,17.8z"/>
	<path fill="#FFFFFF" d="M45,17.8c-0.2,0-0.3,0.1-0.3,0.3v2.5h0.6v-1.8h3.9v-0.6h-3.9v-0.2C45.3,18,45.2,17.8,45,17.8z"/>
	<path fill="#FFFFFF" d="M38.3,18.8c-0.2,0-0.3,0.1-0.3,0.3v2.5l0.6-0.3V20l-0.1,0c-0.1,0.1-0.3,0-0.4-0.1c-0.1-0.1,0-0.2,0-0.3
		c0.1,0.1,0.2,0.2,0.4,0.1l0.8-0.5v-0.6l-0.8,0.4C38.5,18.9,38.4,18.8,38.3,18.8z"/>
	<path fill="#FFFFFF" d="M7.1,56.3c0-0.5,0-0.7,0-1.2c-2.3,0.9-3.4,1.4-5.7,2.5c0,0.5,0,0.8,0,1.3C3.7,57.7,4.9,57.2,7.1,56.3z"/>
	<path fill="#FFFFFF" d="M10.1,82.9c0-3.9,0-7.7-0.1-11.6c-0.6-0.6-0.9-0.9-1.4-1.5c-1.7,1-2.6,1.5-4.3,2.6c0-0.5,0-0.7,0-1.2
		c2.3-1.5,3.5-2.1,5.8-3.4c0-2.8,0-4.2,0-6.9c-1.2-1.3-1.7-2-2.9-3.4C6,58,5.4,58.2,4.3,58.8c1.1,1.5,1.7,2.2,2.9,3.5
		c0,2.4,0,3.6,0,6C6,69,5.5,69.3,4.3,70c0-3.7,0-7.5,0-11.2C2.6,59.6,1.7,60,0,60.9c0,0.5,0,0.8,0,1.3c0.6-0.3,0.9-0.5,1.4-0.8
		c0,8.2,0,16.5,0,24.7c1.2,1.1,1.7,1.6,2.9,2.6c1.2-1,1.7-1.5,2.9-2.4c-1.2-1-1.7-1.5-2.9-2.6c0-3.3,0-6.7,0-10
		C5.5,73,6,72.6,7.2,71.9c0,4.8,0,9.6,0,14.4c1.7-1.4,2.6-2,4.3-3.3c0-0.5,0-0.7,0-1.1C11,82.3,10.7,82.5,10.1,82.9z"/>
	<path fill="#FFFFFF" d="M15.8,59.5c0-0.4,0-0.6,0-1.1c-1.2,0.5-1.7,0.7-2.9,1.2c0,0.4,0,0.7,0,1.1C14.1,60.3,14.6,60,15.8,59.5z"/>
	<path fill="#FFFFFF" d="M18.8,83.5c1.2-0.8,1.7-1.2,2.9-1.9c0-0.4,0-0.6,0-1c-1.2,0.7-1.7,1.1-2.9,1.9
		C18.8,82.9,18.8,83.1,18.8,83.5z"/>
	<path fill="#FFFFFF" d="M15.8,60.6c-1.7,0.8-2.6,1.1-4.3,2c0,0.5,0,0.7,0,1.1c0.6-0.3,0.9-0.4,1.4-0.7c0,7.8,0.1,15.7,0.1,23.5
		c1.2,0.9,1.7,1.4,2.9,2.2c1.2-0.9,1.7-1.3,2.9-2.1c-1.2-0.9-1.7-1.3-2.9-2.2C15.9,76.5,15.9,68.5,15.8,60.6z"/>
	<path fill="#FFFFFF" d="M18.8,84.5c0,0.8,0,1.3,0,2.1c1.2-0.8,1.7-1.2,2.9-2c0-0.8,0-1.2,0-2C20.6,83.4,20,83.8,18.8,84.5z"/>
	<path fill="#FFFFFF" d="M26,61.3c-1.7,0.8-2.6,1.2-4.4,2c0,0.4,0,0.6,0,1c1.7-0.8,2.6-1.2,4.4-2C26,61.8,26,61.7,26,61.3z"/>
	<path fill="#FFFFFF" d="M26,63.2c-1.2,0.5-1.7,0.8-2.9,1.4c0,0.4,0,0.6,0,1c1.2-0.6,1.7-0.8,2.9-1.4C26,63.8,26,63.6,26,63.2z"/>
	<path fill="#FFFFFF" d="M26.1,85.8c0-6.9-0.1-13.7-0.1-20.6c-1.2,0.6-1.7,0.9-2.9,1.4c0,7.4,0.1,14.7,0.1,22.1
		c1.7-1.2,2.6-1.8,4.3-2.9c0-0.4,0-0.6,0-1C27,85.2,26.7,85.4,26.1,85.8z"/>
	<path fill="#FFFFFF" d="M28.9,66.6c2.3-1.2,3.5-1.8,5.8-3c0-0.4,0-0.6,0-0.9c-2.3,1.2-3.5,1.8-5.8,3C28.9,66.1,28.9,66.3,28.9,66.6
		z"/>
	<path fill="#FFFFFF" d="M27.5,69.3c0.6-0.3,0.9-0.5,1.5-0.8C29,75.3,29,82,29,88.7c1.7-1.2,2.6-1.7,4.3-2.8c0-0.4,0-0.6,0-0.9
		c-0.6,0.4-0.9,0.5-1.4,0.9c0-6.6-0.1-13.2-0.1-19.8c-1.7,0.9-2.6,1.4-4.4,2.3C27.5,68.7,27.5,68.9,27.5,69.3z"/>
	<path fill="#FFFFFF" d="M37.7,86c0-6.4,0-12.9-0.1-19.3c-1.2-0.8-1.8-1.2-2.9-2.1c-1.2,0.6-1.8,0.9-2.9,1.5
		c1.2,0.9,1.8,1.3,2.9,2.2c0,6.8,0.1,13.6,0.1,20.4c1.7-1.1,2.6-1.7,4.3-2.7c0-0.4,0-0.5,0-0.9C38.6,85.4,38.3,85.6,37.7,86z"/>
	<path fill="#FFFFFF" d="M43.5,66c1.2-0.7,1.8-1.1,2.9-1.8c0-0.4,0-0.5,0-0.9c-2.9,1.9-4.4,2.7-7.3,4.4c0,0.4,0,0.5,0,0.9
		c0.6-0.3,0.9-0.5,1.5-0.8c0,6.4,0,12.8,0,19.1c1.2,0.7,1.7,1.1,2.9,1.8c1.2-0.7,1.7-1.1,2.9-1.8c-1.2-0.7-1.7-1.1-2.9-1.8
		C43.5,78.7,43.5,72.4,43.5,66z"/>
	<path fill="#FFFFFF" d="M43.5,64.2c0-0.4,0-0.5,0-0.9c-1.2,0.7-1.8,1.1-2.9,1.7c0,0.4,0,0.5,0,0.9C41.8,65.3,42.4,64.9,43.5,64.2z"
		/>
	<path fill="#FFFFFF" d="M49.4,66.9c-1.2-0.7-1.8-1-2.9-1.7c-1.2,0.7-1.8,1.1-2.9,1.8c1.2,0.7,1.8,1.1,2.9,1.8c0,6.1,0,12.1,0,18.2
		c1.7-1.1,2.6-1.6,4.4-2.8c0-0.4,0-0.5,0-0.9c-0.6,0.4-0.9,0.6-1.5,0.9C49.4,78.4,49.4,72.6,49.4,66.9z"/>
	<path fill="#FFFFFF" d="M52.3,79.5c3-2,5.9-4,8.8-6.2c0-0.4,0-0.6,0-1c-2.8,2.2-5.8,4.2-8.8,6.2C52.3,79,52.3,79.2,52.3,79.5z"/>
	<path fill="#FFFFFF" d="M52.3,75.9c1.2-0.8,1.8-1.2,2.9-2c0-3,0-4.5,0-7.4c-1.8,1.3-2.6,1.9-4.4,3.1c0,0.4,0,0.5,0,0.9
		c0.6-0.4,0.9-0.6,1.5-1C52.3,72,52.3,73.3,52.3,75.9z"/>
	<path fill="#FFFFFF" d="M55.2,83.2c-1.2,0.8-1.7,1.2-2.9,1.9c0,0.7,0,1.1,0,1.8c1.2,0.7,1.7,1.1,2.9,1.8c1.2-0.7,1.7-1.1,2.9-1.9
		c-1.2-0.7-1.7-1.1-2.9-1.8C55.2,84.3,55.2,83.9,55.2,83.2z"/>
	<path fill="#FFFFFF" d="M61.1,70.5c-2.8,2.2-5.8,4.3-8.8,6.3c0,0.4,0,0.6,0,0.9c3-2,5.9-4.1,8.8-6.3C61.1,71.1,61.1,70.9,61.1,70.5
		z"/>
	<path fill="#FFFFFF" d="M58.2,62.3c-2.3,1.9-3.5,2.7-5.9,4.4c0,0.4,0,0.6,0,0.9c2.3-1.6,3.5-2.5,5.9-4.3
		C58.2,62.9,58.2,62.7,58.2,62.3z"/>
	<path fill="#FFFFFF" d="M61.1,65.7c-1.2-0.6-1.7-0.9-2.9-1.5c-1.2,0.9-1.8,1.4-2.9,2.2c1.2,0.6,1.8,0.9,2.9,1.6
		C59.3,67.1,59.9,66.6,61.1,65.7z"/>
	<path fill="#FFFFFF" d="M61,74.3c-1.2,0.9-1.8,1.3-2.9,2.1c0,3.5,0,6.9,0,10.4c1.7-1.2,2.6-1.7,4.4-3c0-0.4,0-0.6,0-1
		c-0.6,0.4-0.9,0.6-1.5,1C61,80.7,61,77.5,61,74.3z"/>
	<path fill="#FFFFFF" d="M66.9,63.6c0-0.4,0-0.6,0-1c-1.2,1.1-1.8,1.6-2.9,2.6c0,0.4,0,0.6,0,1C65.2,65.2,65.8,64.7,66.9,63.6z"/>
	<path fill="#FFFFFF" d="M66.9,64.6c-1.2,1.1-1.8,1.6-2.9,2.5c0,7.2-0.1,14.4-0.1,21.6c1.7-1.2,2.6-1.8,4.4-3.1c0-0.4,0-0.6,0-1
		c-0.6,0.4-0.9,0.6-1.5,1.1C66.8,78.7,66.9,71.6,66.9,64.6z"/>
	<path fill="#FFFFFF" d="M66.9,60.6c-1.8,1.6-2.6,2.4-4.4,3.9c0,0.4,0,0.6,0,1c1.8-1.5,2.6-2.2,4.4-3.9C66.9,61.2,66.9,61,66.9,60.6
		z"/>
	<path fill="#FFFFFF" d="M72.7,60c0-0.4,0-0.6,0-1.1c-1.2,1.2-1.7,1.8-2.9,2.9c0,0.4,0,0.6,0,1C71,61.8,71.6,61.2,72.7,60z"/>
	<path fill="#FFFFFF" d="M78.5,61.4c-1.2-0.5-1.7-0.8-2.9-1.3c-1.2,1.3-1.7,1.9-2.9,3c1.2,0.5,1.7,0.8,2.9,1.4
		c0,7.3-0.1,14.7-0.1,22c1.7-1.4,2.6-2.1,4.4-3.6c0-0.5,0-0.7,0-1.2c-0.6,0.5-0.9,0.8-1.5,1.3C78.4,75.8,78.5,68.6,78.5,61.4z"/>
	<path fill="#FFFFFF" d="M72.7,62.1c1.2-1.2,1.7-1.8,2.9-3.1c0-0.4,0-0.7,0-1.1c-2.4,2.5-4.8,5-7.3,7.3c0,0.4,0,0.6,0,1
		c0.6-0.5,0.9-0.8,1.5-1.3c0,7.2-0.1,14.5-0.1,21.7c1.2,0.8,1.7,1.2,2.9,2.1c1.2-0.9,1.7-1.3,2.9-2.2c-1.2-0.9-1.7-1.3-2.9-2.1
		C72.6,77,72.7,69.6,72.7,62.1z"/>
	<path fill="#FFFFFF" d="M87.2,53.1c-1.8,2.5-3.7,5-5.7,7.3c0,0.5,0,0.7,0,1.2c2-2.3,3.9-4.8,5.8-7.3C87.1,53.8,87.1,53.6,87.2,53.1
		z"/>
	<path fill="#FFFFFF" d="M90,56.9c-1.1-0.5-1.7-0.8-2.9-1.3c-1.1,1.5-1.7,2.3-2.9,3.7c1.1,0.5,1.7,0.8,2.9,1.4
		C88.3,59.3,88.9,58.5,90,56.9z"/>
	<path fill="#FFFFFF" d="M87.1,81.1c0,0.5,0,0.8,0,1.3c1.2-1.1,1.7-1.7,2.9-2.9c0-0.5,0-0.8,0-1.3C88.8,79.4,88.3,80,87.1,81.1z"/>
	<path fill="#FFFFFF" d="M81.4,72.2c1.2-1.2,1.7-1.8,2.9-3.1c0-3.3,0-6.5,0-9.8c-1.7,2.1-2.6,3.2-4.3,5.1c0,0.5,0,0.7,0,1.2
		c0.6-0.6,0.9-1,1.4-1.6C81.4,67.3,81.4,68.9,81.4,72.2z"/>
	<path fill="#FFFFFF" d="M87.1,83.6c0,1,0,1.5,0,2.5c1.2-1.1,1.7-1.6,2.9-2.8c0-1.1,0-1.6,0-2.7C88.8,82,88.3,82.5,87.1,83.6z"/>
	<path fill="#FFFFFF" d="M81.3,76.9c2.3-2.2,3.5-3.4,5.8-6c0-0.5,0-0.8,0-1.3c-2.3,2.6-3.5,3.9-5.8,6.1
		C81.3,76.2,81.3,76.5,81.3,76.9z"/>
	<path fill="#FFFFFF" d="M87.1,67.1c-2.3,2.7-3.5,4-5.8,6.3c0,0.5,0,0.7,0,1.2c2.3-2.3,3.5-3.5,5.8-6.2
		C87.1,67.9,87.1,67.6,87.1,67.1z"/>
	<path fill="#FFFFFF" d="M84.2,75.3c-1.2,1.2-1.7,1.8-2.9,2.9c0,3.3,0,5,0,8.3c1.2,0.9,1.7,1.4,2.9,2.4c1.2-1,1.7-1.5,2.9-2.5
		c-1.2-1-1.7-1.4-2.9-2.4C84.2,80.4,84.2,78.7,84.2,75.3z"/>
</g>
</svg>
