<?xml version="1.0" standalone="no"?>
<!DOCTYPE svg PUBLIC "-//W3C//DTD SVG 20010904//EN"
 "http://www.w3.org/TR/2001/REC-SVG-20010904/DTD/svg10.dtd">
<svg version="1.0" xmlns="http://www.w3.org/2000/svg"
 width="601.000000pt" height="601.000000pt" viewBox="0 0 601.000000 601.000000"
 preserveAspectRatio="xMidYMid meet">
<metadata>
Created by potrace 1.11, written by Peter Selinger 2001-2013
</metadata>
<g transform="translate(0.000000,601.000000) scale(0.100000,-0.100000)"
fill="#000000" stroke="none">
<path d="M2999 5958 c-6 -21 -5 -38 1 -38 5 0 8 9 7 20 -1 17 -5 26 -8 18z"/>
<path d="M2503 5895 c3 -11 44 -146 91 -300 192 -632 216 -711 216 -723 0 -7
-30 22 -66 65 -36 43 -76 89 -88 103 -12 14 -59 70 -106 125 -46 55 -87 102
-90 105 -3 3 -57 66 -120 140 -63 74 -121 142 -129 151 -9 9 -25 27 -36 40
-87 104 -169 199 -172 199 -4 0 26 -44 398 -576 146 -210 269 -386 273 -393
10 -15 5 -12 -616 404 -287 193 -527 352 -532 354 -6 1 0 -5 14 -15 14 -10 27
-21 30 -24 3 -3 208 -169 455 -368 248 -198 466 -374 485 -391 29 -24 -89 17
-670 234 -387 145 -706 263 -707 261 -2 -1 32 -19 74 -39 140 -64 226 -104
338 -155 61 -28 144 -66 185 -85 41 -19 152 -70 245 -112 94 -43 213 -98 265
-122 52 -25 117 -54 143 -65 26 -11 46 -22 45 -23 -2 -2 -57 5 -124 15 -66 11
-143 22 -170 26 -27 3 -56 7 -64 9 -8 2 -51 8 -95 15 -44 6 -91 13 -105 15
-37 6 -150 23 -191 29 -20 3 -143 21 -275 41 -131 20 -250 38 -264 40 -14 2
-45 6 -70 10 -82 12 -94 14 -194 30 -54 8 -100 14 -102 12 -2 -2 60 -18 139
-36 175 -40 172 -40 227 -51 25 -5 54 -11 65 -14 11 -3 270 -61 575 -130 305
-68 548 -125 540 -126 -27 -3 -171 -8 -430 -14 -140 -4 -307 -9 -370 -11 -63
-2 -223 -7 -355 -11 -132 -3 -276 -7 -320 -9 -44 -1 -143 -3 -219 -4 -77 0
-137 -3 -135 -6 7 -6 201 -13 834 -30 110 -3 259 -7 330 -10 72 -3 238 -8 370
-11 132 -3 241 -7 243 -9 2 -1 -23 -7 -55 -13 -46 -9 -684 -134 -743 -147 -8
-1 -112 -22 -230 -45 -118 -23 -219 -43 -225 -44 -5 -2 -28 -6 -50 -10 -22 -5
-152 -30 -290 -57 -137 -27 -261 -51 -275 -54 -98 -18 -134 -26 -139 -31 -3
-3 10 -3 29 0 19 4 51 8 70 11 19 2 87 11 150 20 63 9 129 18 145 20 70 9 174
24 215 30 14 2 63 9 110 15 110 15 124 17 255 35 61 8 128 18 150 20 41 6 102
14 145 20 14 2 48 7 75 11 28 3 57 7 65 9 8 1 40 6 70 10 30 3 66 8 80 10 14
2 63 9 110 15 126 17 152 20 180 25 59 10 115 16 110 12 -3 -2 -43 -18 -90
-34 -267 -95 -730 -260 -820 -294 -138 -50 -1128 -404 -1158 -414 -13 -4 -22
-9 -19 -11 3 -4 95 23 292 86 33 10 182 55 330 100 294 89 688 209 885 270
349 107 554 169 556 167 2 -1 -32 -21 -74 -43 -76 -41 -797 -423 -1002 -532
-150 -79 -411 -217 -505 -267 -188 -100 -431 -228 -486 -256 -32 -17 -59 -32
-59 -34 0 -5 47 15 120 51 30 14 83 39 118 55 146 68 194 90 316 148 70 33
130 61 131 61 1 0 54 24 117 54 63 30 148 70 189 89 133 62 252 118 368 173
62 30 114 54 116 54 2 0 78 36 170 80 92 44 168 80 170 80 2 0 70 32 151 70
81 39 154 68 161 66 8 -3 11 -2 8 3 -3 5 -1 12 5 16 5 3 10 2 10 -4 0 -7 8 -7
23 -2 12 4 33 5 47 1 30 -8 50 -2 50 15 0 31 69 85 109 85 20 0 21 5 21 144
l0 144 33 27 c17 15 50 44 72 64 22 20 76 68 120 106 155 136 142 120 147 184
4 53 11 70 51 125 5 6 -68 195 -178 461 -177 430 -222 534 -212 490z"/>
<path d="M2989 5838 c0 -40 -2 -80 -4 -88 -1 -8 -6 -87 -9 -175 -4 -88 -9
-187 -11 -220 -2 -33 -7 -116 -10 -185 -4 -69 -8 -139 -10 -155 l-3 -30 58 0
c52 0 58 2 55 20 -2 11 -6 83 -10 160 -3 77 -8 172 -10 210 -2 39 -7 129 -10
200 -4 72 -8 144 -10 160 -2 17 -3 63 -4 103 -1 41 -5 72 -11 72 -6 0 -10 -31
-11 -72z"/>
<path d="M3443 5787 c-28 -67 -117 -283 -198 -480 l-148 -357 22 -21 c29 -27
41 -60 41 -113 0 -41 4 -46 73 -107 39 -35 74 -66 77 -69 3 -3 53 -48 113 -99
l107 -93 0 -149 c0 -145 1 -149 21 -149 34 0 76 -31 96 -69 23 -46 30 -50 63
-41 30 9 91 -9 120 -35 26 -23 43 -79 38 -121 -4 -34 -3 -35 106 -106 61 -39
192 -124 291 -189 99 -65 282 -185 407 -266 125 -81 348 -227 495 -323 148
-96 340 -221 428 -278 88 -57 194 -126 235 -154 143 -94 4 9 -454 338 -254
182 -639 458 -856 614 -217 156 -470 338 -562 404 -93 65 -166 121 -164 123 1
2 34 -12 72 -31 66 -32 459 -219 801 -380 87 -41 214 -101 283 -134 69 -32
150 -71 180 -85 30 -13 114 -53 185 -87 72 -34 150 -71 174 -82 25 -11 119
-56 210 -100 91 -44 176 -84 189 -89 34 -13 26 -1 -10 15 -18 8 -69 35 -113
59 -100 55 -492 265 -605 325 -75 39 -160 84 -457 243 -40 22 -108 58 -150 80
-43 23 -100 54 -128 69 -27 15 -99 53 -160 85 -60 32 -148 79 -195 105 -47 26
-127 68 -177 94 -51 26 -93 49 -93 51 0 5 168 -44 444 -129 61 -19 185 -57
276 -85 566 -173 667 -203 680 -207 8 -2 160 -48 338 -102 178 -55 320 -96
315 -92 -4 4 -75 30 -158 59 -156 55 -295 105 -405 146 -36 13 -390 140 -787
282 -397 141 -721 259 -719 261 2 1 32 -2 67 -7 59 -9 88 -13 189 -26 19 -3
96 -14 170 -24 74 -11 158 -23 186 -26 28 -3 61 -8 75 -10 13 -3 44 -7 69 -10
25 -3 65 -8 90 -11 25 -3 68 -9 95 -14 28 -5 75 -12 106 -15 31 -3 65 -7 75
-9 11 -2 42 -7 69 -10 28 -4 115 -16 195 -27 80 -12 160 -23 179 -25 19 -2 48
-5 65 -8 17 -2 54 -8 81 -11 71 -10 106 -15 135 -20 56 -9 124 -16 119 -11 -3
3 -23 8 -45 12 -21 3 -160 30 -309 59 -148 30 -286 57 -305 60 -19 3 -64 12
-100 20 -36 8 -207 42 -380 75 -173 34 -371 73 -440 87 -145 29 -126 25 -303
59 -76 15 -136 28 -135 29 2 2 118 6 258 9 140 4 302 9 360 11 58 3 197 7 310
10 689 17 820 22 828 29 3 3 -48 6 -114 7 -65 0 -168 2 -229 4 -60 2 -209 6
-330 10 -121 3 -276 8 -345 10 -69 2 -237 7 -375 11 -137 3 -285 7 -327 9
-119 3 -112 8 48 41 7 1 45 10 85 19 41 9 81 18 89 20 54 12 663 148 731 164
47 11 96 22 109 25 88 16 394 87 399 92 3 3 -10 3 -29 0 -68 -12 -96 -16 -171
-26 -41 -6 -84 -12 -95 -14 -10 -2 -41 -7 -69 -10 -27 -4 -61 -8 -75 -11 -40
-7 -82 -14 -135 -20 -27 -4 -57 -8 -65 -10 -8 -2 -35 -7 -60 -10 -25 -3 -56
-8 -70 -10 -14 -2 -133 -20 -265 -40 -132 -20 -253 -38 -270 -41 -16 -3 -47
-7 -67 -9 -20 -2 -77 -11 -125 -19 -121 -20 -166 -26 -162 -22 2 2 60 29 129
61 69 31 152 70 185 85 33 16 121 56 195 90 174 80 249 114 335 154 39 18 157
73 262 121 106 49 192 90 190 91 -2 2 -319 -115 -705 -260 -386 -145 -702
-262 -702 -261 0 3 57 49 678 549 182 147 332 269 332 271 0 2 -259 -170 -576
-382 -318 -212 -573 -380 -569 -372 5 7 134 193 288 413 154 221 298 428 321
461 23 33 43 62 46 65 3 3 11 14 19 25 7 11 -2 4 -20 -16 -36 -37 -53 -57
-134 -154 -27 -33 -55 -64 -61 -70 -6 -5 -35 -39 -65 -75 -30 -36 -56 -67 -59
-70 -3 -3 -28 -32 -55 -65 -28 -33 -53 -62 -56 -65 -3 -3 -46 -52 -94 -110
-49 -58 -91 -107 -94 -110 -3 -3 -39 -44 -79 -91 -40 -48 -78 -92 -86 -98 -9
-7 -1 31 21 101 19 62 70 230 113 373 43 143 99 327 124 409 25 82 45 151 43
153 -2 1 -26 -52 -54 -120z"/>
<path d="M2980 4890 c-32 -8 -50 -43 -50 -97 l0 -43 75 0 75 0 -1 38 c-1 70
-45 116 -99 102z"/>
<path d="M3125 4674 c11 -17 45 -65 75 -106 51 -71 60 -79 129 -108 40 -17 74
-30 76 -28 2 2 -50 49 -114 105 -64 56 -132 117 -151 135 l-34 33 19 -31z"/>
<path d="M2743 4559 c-79 -71 -139 -129 -134 -129 4 0 39 14 77 31 65 28 73
36 138 125 37 52 67 96 65 98 -2 2 -68 -55 -146 -125z"/>
<path d="M2770 4249 c0 -109 3 -148 13 -151 10 -3 392 -2 435 1 9 1 12 38 12
149 l0 147 -230 0 -230 0 0 -146z"/>
<path d="M2595 4381 l-30 -6 0 -130 0 -130 50 0 50 0 0 138 c1 152 5 144 -70
128z"/>
<path d="M3339 4384 c-1 -5 -2 -69 -3 -141 l-2 -133 57 0 57 0 1 130 c0 71 -3
131 -7 134 -16 9 -102 18 -103 10z"/>
<path d="M2440 4051 c-5 -11 -10 -82 -10 -159 l0 -139 30 5 30 4 0 98 0 98
212 0 212 0 2 31 c3 37 25 33 -225 35 -191 1 -194 2 -202 24 -10 27 -35 29
-49 3z"/>
<path d="M2973 4058 c-4 -7 -8 -77 -8 -155 l-1 -143 36 0 36 0 0 98 -1 97 200
2 c110 1 206 2 213 2 7 1 12 15 12 34 l0 32 -202 0 c-207 -1 -232 1 -223 16 6
8 -26 29 -44 29 -5 0 -13 -6 -18 -12z"/>
<path d="M3513 4063 c-10 -3 -13 -44 -13 -154 0 -140 1 -149 19 -149 11 0 26
-3 35 -6 13 -5 16 7 18 80 l3 85 55 -34 c30 -19 69 -35 85 -35 l30 -1 -26 -22
c-23 -20 -26 -29 -25 -86 1 -62 3 -66 34 -84 38 -22 34 -39 35 139 0 134 -4
154 -31 154 -22 0 -46 -23 -35 -33 16 -16 -14 -5 -59 23 -26 17 -53 30 -58 30
-6 0 -10 14 -10 31 0 54 -21 77 -57 62z"/>
<path d="M1814 3762 c-204 -147 -505 -363 -670 -481 -732 -524 -1034 -743
-1034 -747 0 -2 39 22 88 55 48 32 132 87 187 123 55 36 316 206 580 378 264
172 532 347 595 388 63 42 192 125 285 186 94 61 198 129 232 151 42 27 63 47
63 60 3 62 11 99 30 125 12 17 20 30 18 29 -2 0 -170 -121 -374 -267z"/>
<path d="M2335 3959 c-25 -14 -41 -17 -43 -10 -6 17 -42 13 -49 -5 -5 -13 -8
-228 -4 -282 1 -10 7 -9 30 2 35 19 37 25 37 101 -1 54 -3 60 -25 65 -33 7
-40 30 -9 28 21 -2 107 46 109 61 4 31 4 61 -1 61 -3 0 -23 -10 -45 -21z"/>
<path d="M2119 3801 c-8 -9 -75 -72 -149 -141 -74 -69 -163 -153 -199 -186
-36 -34 -82 -76 -101 -94 -19 -18 -89 -82 -154 -144 -66 -61 -134 -124 -152
-141 -172 -160 -264 -246 -298 -278 -23 -22 -88 -82 -145 -135 -58 -54 -121
-112 -140 -130 -20 -19 -63 -59 -96 -90 -34 -32 -117 -109 -185 -172 -68 -63
-156 -146 -195 -185 -67 -65 -63 -64 25 12 19 17 166 142 325 278 160 137 308
264 330 284 23 20 67 59 100 86 57 48 127 109 190 164 16 14 62 53 101 86 39
33 122 104 185 159 63 54 125 108 139 120 25 21 209 179 264 226 16 14 34 30
40 35 6 6 40 35 76 66 l65 56 -1 67 c-1 37 -3 68 -5 70 -2 1 -11 -4 -20 -13z"/>
<path d="M3859 3796 c0 -14 -1 -42 -1 -61 0 -19 1 -41 1 -49 1 -8 94 -94 209
-192 114 -98 209 -181 212 -184 3 -3 70 -61 150 -129 164 -141 258 -221 274
-236 13 -12 762 -653 795 -680 13 -11 28 -25 35 -30 6 -6 63 -54 126 -109 104
-89 108 -91 39 -24 -41 40 -124 118 -183 173 -60 55 -125 116 -146 135 -21 19
-93 87 -161 150 -68 63 -161 151 -208 195 -205 192 -236 221 -247 230 -6 6
-62 58 -125 116 -63 59 -130 121 -149 139 -19 18 -93 87 -164 154 -72 66 -159
148 -195 181 -102 94 -124 116 -195 184 -62 60 -66 62 -67 37z"/>
<path d="M2355 3669 c-102 -50 -128 -70 -118 -95 3 -8 37 -45 76 -82 39 -37
91 -86 115 -109 25 -24 54 -43 64 -43 15 0 1 22 -59 91 -43 50 -88 104 -101
119 l-22 28 62 21 c34 12 64 17 67 12 53 -80 199 -270 209 -271 6 0 12 2 12 4
0 2 -29 65 -65 141 -36 75 -65 139 -65 141 0 2 99 4 220 4 l220 0 1 -32 c1
-18 2 -37 3 -43 1 -5 6 -50 10 -100 5 -49 12 -99 17 -110 8 -19 8 -19 15 3 6
22 11 23 53 18 25 -3 87 -8 138 -12 86 -6 91 -5 88 12 -2 11 -4 24 -4 31 -1 6
-9 10 -19 8 -15 -3 -144 -13 -222 -18 -18 -2 -25 3 -24 16 1 9 2 35 3 57 1 28
5 40 16 40 8 0 15 5 15 11 0 5 -4 8 -9 5 -12 -8 -17 22 -11 69 l5 40 213 3
c116 1 212 0 212 -2 0 -3 -29 -66 -65 -142 -36 -75 -63 -144 -60 -153 2 -9 7
-54 10 -101 3 -47 7 -112 10 -145 3 -33 8 -89 10 -125 4 -58 8 -106 20 -270 2
-25 7 -85 11 -135 3 -49 8 -106 9 -125 10 -103 19 -243 19 -304 1 -81 21 -72
-189 -82 -236 -11 -551 -6 -712 11 -101 11 -140 16 -168 21 -21 4 -49 -4 -93
-24 l-63 -30 63 -10 c35 -6 88 -14 118 -17 30 -3 66 -8 80 -10 14 -2 63 -7
110 -10 47 -4 105 -8 130 -11 58 -5 499 -5 565 1 28 2 84 7 125 10 41 3 89 8
105 10 17 2 53 7 80 10 28 3 61 7 75 10 14 2 43 7 64 10 22 3 41 7 43 9 2 2
-23 16 -56 32 -45 21 -61 34 -64 54 -5 24 -9 26 -79 28 -40 2 -74 5 -76 6 -1
2 29 12 68 22 64 16 70 20 70 44 0 50 -28 64 -135 70 l-20 1 20 8 c11 5 44 12
74 16 l53 7 -6 41 c-4 23 -8 42 -9 43 -1 1 -31 5 -67 8 -35 4 -66 9 -68 11 -2
1 25 9 60 17 l63 14 -3 34 c-4 44 -8 49 -62 54 -25 3 -52 6 -60 6 -21 3 60 28
91 29 21 1 28 7 32 29 7 34 5 36 -68 52 l-60 13 60 11 c54 10 60 13 60 36 1
44 -12 56 -70 69 -31 7 -55 14 -53 16 2 2 26 7 53 10 28 4 53 9 56 11 3 2 3
20 0 41 -6 35 -9 38 -56 49 l-50 12 46 1 c25 0 48 3 51 6 3 3 2 22 -1 42 -6
33 -10 38 -60 54 -67 23 -71 27 -29 28 83 3 83 3 80 41 -5 46 -4 45 -57 60
-56 16 -58 28 -5 25 38 -2 40 -1 40 29 0 42 -7 50 -62 74 -27 11 -48 22 -48
24 0 2 24 3 52 3 32 0 53 4 53 11 0 6 51 60 113 119 103 99 112 110 112 144
l-1 36 -112 53 -112 52 -535 -1 -535 -1 -100 -49z m1283 -73 c47 -16 51 -20
40 -34 -12 -16 -120 -140 -164 -191 l-22 -23 -7 30 c-4 19 -15 34 -27 38 -16
5 -17 8 -7 14 7 5 17 6 22 3 6 -4 7 5 3 20 -5 22 3 41 41 97 27 38 53 68 58
66 6 -2 34 -11 63 -20z"/>
<path d="M2089 3541 c-55 -67 -323 -388 -347 -416 -10 -11 -74 -87 -142 -170
-69 -82 -135 -161 -147 -175 -11 -14 -104 -124 -205 -245 -276 -331 -492 -589
-503 -601 -5 -7 -26 -31 -45 -55 -19 -24 -83 -101 -142 -171 -60 -70 -108
-130 -108 -133 0 -3 17 14 38 37 20 24 39 45 42 48 3 3 39 43 80 89 41 47 82
92 90 101 8 9 45 50 81 91 37 41 79 88 94 104 15 17 44 48 64 70 20 22 178
198 351 390 173 193 319 355 325 361 53 58 109 120 214 239 69 77 129 145 135
150 6 6 45 48 86 95 41 46 85 95 98 108 26 27 27 35 7 52 -8 7 -13 24 -11 40
6 50 -8 48 -55 -9z"/>
<path d="M3859 3578 c-1 -13 -1 -27 0 -32 1 -4 -5 -19 -14 -33 -16 -24 -13
-36 15 -63 3 -3 45 -50 94 -105 50 -55 92 -102 95 -105 3 -3 42 -45 86 -95 44
-49 82 -92 85 -95 3 -3 41 -45 85 -95 44 -49 82 -92 85 -95 3 -3 64 -70 135
-150 72 -80 134 -150 140 -156 5 -6 44 -48 85 -94 41 -46 80 -88 85 -94 6 -6
91 -101 189 -211 99 -110 187 -207 195 -216 9 -9 66 -72 126 -139 215 -242
218 -233 5 20 -34 39 -82 98 -139 165 -9 11 -154 184 -322 385 -167 201 -455
545 -639 765 -436 523 -390 470 -391 443z"/>
<path d="M3188 3531 c-131 -24 -125 -28 51 -34 38 -2 44 1 47 20 2 12 0 24 -4
26 -4 2 -46 -4 -94 -12z"/>
<path d="M1980 3082 c-342 -535 -612 -958 -823 -1287 -180 -280 -301 -470
-373 -585 -51 -82 -9 -26 124 165 65 94 394 567 732 1052 338 486 624 897 634
914 l19 31 -39 38 -39 39 -235 -367z"/>
<path d="M3747 3412 c-20 -21 -37 -41 -37 -44 0 -4 59 -91 131 -195 73 -103
151 -215 174 -248 184 -266 648 -932 775 -1115 87 -124 184 -264 216 -311 105
-152 189 -270 207 -292 28 -33 21 -23 -498 788 -67 105 -303 474 -524 820
-222 347 -404 631 -405 632 -1 2 -19 -14 -39 -35z"/>
<path d="M2283 3222 c-28 -59 -104 -215 -168 -347 -65 -132 -141 -289 -170
-350 -29 -60 -99 -204 -155 -320 -114 -233 -232 -478 -320 -660 -32 -66 -124
-255 -204 -419 -80 -165 -145 -301 -143 -302 2 -2 15 20 30 49 15 29 49 93 75
142 27 50 70 131 97 180 26 50 60 113 75 140 15 28 54 100 85 160 68 130 307
579 420 790 18 33 58 110 90 170 32 61 72 137 90 170 18 33 56 105 85 160 29
55 60 114 70 130 72 125 123 235 128 274 11 87 8 113 -13 127 -20 13 -23 9
-72 -94z"/>
<path d="M3640 3312 c-23 -19 -23 -20 -11 -97 13 -78 20 -94 126 -290 18 -33
56 -105 85 -160 29 -55 103 -194 165 -310 62 -115 138 -259 170 -320 32 -60
72 -137 90 -170 18 -33 56 -105 85 -160 29 -55 83 -156 120 -225 37 -69 96
-179 130 -245 35 -66 102 -192 149 -280 48 -88 95 -177 106 -197 10 -21 21
-36 22 -34 2 2 -27 66 -65 142 -38 76 -88 180 -112 229 -24 50 -92 191 -153
315 -60 124 -131 270 -157 325 -26 55 -98 204 -160 330 -62 127 -131 271 -155
320 -24 50 -105 218 -182 375 -76 157 -159 327 -184 378 l-45 94 -24 -20z"/>
<path d="M2476 3283 c-4 -8 -6 -23 -6 -34 0 -18 5 -19 68 -13 106 11 110 17
22 40 -67 18 -80 19 -84 7z"/>
<path d="M3279 3276 c-2 -2 -37 -7 -76 -11 -40 -4 -81 -8 -90 -10 -10 -2 -33
-4 -50 -4 -18 -1 -33 -5 -33 -10 0 -5 10 -9 23 -8 12 0 72 -3 134 -7 l111 -7
-2 26 c-3 26 -9 38 -17 31z"/>
<path d="M2459 3162 c-1 -4 -3 -20 -5 -35 l-3 -28 62 7 c34 4 72 7 85 8 12 0
22 3 22 6 0 8 -160 50 -161 42z"/>
<path d="M3219 3136 c-2 -2 -47 -7 -99 -11 -93 -7 -140 -19 -77 -21 18 0 84
-4 148 -8 l117 -8 0 26 c0 24 -4 26 -43 26 -23 0 -44 -2 -46 -4z"/>
<path d="M2446 3037 c-3 -6 -7 -23 -10 -36 l-5 -23 86 5 c47 3 87 8 90 10 2 3
-22 12 -54 21 -32 9 -68 21 -81 26 -16 7 -24 6 -26 -3z"/>
<path d="M2946 3009 c-37 -10 -64 -35 -89 -84 -18 -36 -21 -61 -23 -225 -1
-102 -3 -188 -3 -192 -1 -5 -14 -8 -31 -8 -23 0 -30 -4 -30 -20 0 -23 -17 -22
215 -22 250 0 235 -1 235 22 0 14 -7 20 -22 20 -43 0 -45 8 -46 195 0 110 -5
192 -12 210 -29 77 -120 125 -194 104z m122 -72 c43 -40 46 -55 48 -248 l2
-186 -116 1 -117 1 -2 170 c-1 187 4 219 45 257 45 43 97 45 140 5z"/>
<path d="M3288 3014 c-2 -2 -32 -6 -67 -10 -83 -8 -89 -9 -96 -16 -11 -11 51
-25 123 -27 70 -2 72 -2 72 22 0 22 -21 43 -32 31z"/>
<path d="M2430 2910 c0 -10 -3 -26 -6 -35 -7 -17 12 -18 166 -5 16 1 -35 22
-112 45 -45 13 -48 13 -48 -5z"/>
<path d="M3310 2890 c-14 -4 -40 -8 -57 -9 -26 -1 -33 -5 -33 -20 0 -21 29
-29 88 -22 28 3 32 7 32 32 0 16 -1 29 -2 28 -2 -1 -14 -5 -28 -9z"/>
<path d="M2410 2759 l0 -31 78 5 c42 4 84 7 92 7 19 2 -128 50 -152 50 -13 0
-18 -8 -18 -31z"/>
<path d="M3684 2760 c3 -14 8 -59 11 -100 7 -87 14 -162 20 -205 3 -16 131
-354 286 -750 378 -966 449 -1151 449 -1163 0 -6 4 -13 9 -17 14 -8 26 -45
-200 605 -22 63 -67 192 -99 285 -32 94 -97 283 -145 420 -48 138 -90 261 -95
275 -11 34 -172 498 -204 589 -27 77 -42 104 -32 61z"/>
<path d="M2300 2746 c-10 -28 -102 -293 -130 -376 -10 -30 -50 -145 -88 -255
-38 -110 -138 -398 -222 -640 -168 -488 -227 -659 -271 -784 -16 -46 -27 -86
-24 -89 2 -3 7 4 11 14 9 26 51 134 236 609 88 226 191 489 228 585 38 96 107
274 154 395 48 121 88 234 91 250 6 47 14 127 21 207 3 40 7 81 10 91 8 26 -5
20 -16 -7z"/>
<path d="M3230 2733 c0 -22 5 -25 50 -25 55 0 60 2 60 27 0 24 -2 25 -55 24
-51 -2 -55 -4 -55 -26z"/>
<path d="M2396 2647 c-3 -17 -4 -32 -2 -34 2 -2 47 -2 101 -1 l97 3 -95 31
-95 32 -6 -31z"/>
<path d="M3232 2606 c3 -17 12 -21 62 -24 52 -3 58 -2 52 13 -3 9 -6 21 -6 26
0 5 -25 9 -55 8 -50 -2 -56 -4 -53 -23z"/>
<path d="M2385 2523 c-3 -14 -4 -27 -2 -30 3 -2 49 -6 103 -8 55 -2 92 -2 84
2 -8 3 -52 19 -97 34 l-81 27 -7 -25z"/>
<path d="M3312 2502 c-38 -6 -25 -45 16 -49 22 -3 32 0 32 10 0 23 -24 43 -48
39z"/>
<path d="M2368 2400 c-3 -16 -2 -32 0 -35 3 -3 51 -5 106 -4 l101 1 -83 28
c-46 16 -92 32 -102 35 -14 4 -19 -1 -22 -25z"/>
<path d="M3230 2369 c-86 -12 -142 -17 -174 -18 -16 -1 -26 -4 -23 -8 4 -3 60
-8 125 -10 64 -2 136 -5 160 -6 40 -3 42 -2 42 25 0 32 -6 33 -130 17z"/>
<path d="M2355 2302 c-3 -3 -5 -18 -5 -34 0 -24 4 -28 28 -29 15 0 63 -2 107
-4 44 -3 73 -2 65 2 -69 29 -190 70 -195 65z"/>
<path d="M3240 2238 c-113 -14 -176 -21 -192 -20 -10 0 -20 -2 -22 -6 -2 -4
33 -8 77 -8 45 -1 123 -3 172 -5 l90 -3 3 27 c3 27 2 28 -35 25 -21 -1 -63 -6
-93 -10z"/>
<path d="M2345 2167 c-13 -45 -12 -57 3 -58 173 -7 205 -7 192 -2 -125 49
-192 70 -195 60z"/>
<path d="M3310 2116 c-3 -2 -36 -7 -75 -10 -38 -3 -81 -8 -94 -11 -13 -2 -41
-5 -63 -7 -81 -4 -42 -14 70 -16 64 -2 144 -4 177 -5 57 -2 59 -1 59 23 1 21
-5 25 -35 28 -19 2 -37 1 -39 -2z"/>
<path d="M2319 1927 c-1 -1 -2 -14 -3 -29 -2 -20 2 -28 13 -29 9 0 25 -2 36
-4 11 -1 52 -6 90 -9 70 -6 70 -6 35 10 -39 17 -169 64 -171 61z"/>
<path d="M3535 1910 c-44 -9 -79 -21 -78 -26 1 -5 4 -59 8 -119 3 -61 8 -121
10 -135 2 -14 7 -74 10 -134 4 -60 8 -116 10 -125 1 -9 6 -63 10 -121 4 -58 8
-121 10 -140 2 -20 7 -78 10 -130 4 -52 8 -111 10 -130 2 -19 6 -78 10 -130 3
-52 8 -111 10 -130 2 -19 7 -78 10 -130 3 -52 8 -111 10 -130 6 -60 18 -234
17 -252 0 -10 4 -18 9 -18 5 0 70 28 144 62 131 59 135 62 133 91 -1 16 -7 31
-14 34 -6 2 -53 -7 -105 -21 -51 -14 -94 -24 -96 -23 -1 2 45 25 103 52 102
47 105 49 100 78 -2 16 -7 31 -10 34 -3 3 -49 -4 -101 -17 -53 -12 -98 -20
-100 -18 -3 2 40 26 95 53 97 48 100 50 100 83 0 33 0 33 -37 27 -21 -3 -45
-7 -53 -10 -8 -2 -26 -6 -40 -9 -14 -2 -38 -7 -55 -10 -29 -6 -29 -5 6 11 20
10 66 31 103 47 47 21 65 34 61 43 -3 8 -5 24 -5 35 0 18 -4 20 -37 14 -51 -9
-70 -12 -123 -20 -42 -6 -40 -4 40 34 117 55 115 54 113 85 -1 15 -4 30 -7 32
-4 5 -62 -4 -166 -23 l-25 -4 25 12 c14 7 57 26 96 44 69 31 71 32 66 64 l-5
32 -51 -6 c-28 -3 -71 -8 -96 -11 -43 -5 -41 -4 46 38 86 42 90 45 90 76 l0
33 -55 -7 c-92 -12 -135 -16 -130 -11 2 2 41 18 87 36 82 31 83 32 80 63 l-3
32 -90 -3 c-49 -2 -88 -2 -85 1 3 3 42 20 88 37 82 33 82 33 80 66 -2 33 -4
34 -43 33 -22 0 -64 -4 -93 -8 -68 -10 -56 0 41 34 76 27 77 28 77 62 l0 35
-80 -4 c-44 -2 -80 0 -80 3 0 4 34 19 75 34 76 28 80 32 69 73 -6 22 -10 23
-85 20 -44 -2 -79 -1 -79 2 0 3 36 16 79 29 l79 23 -3 36 c-2 19 -8 38 -13 41
-6 3 -44 4 -84 0 -40 -3 -74 -5 -76 -3 -2 1 18 10 45 20 118 43 115 41 111 76
l-3 32 -82 -1 c-46 0 -83 1 -83 2 0 2 26 11 58 20 99 27 100 28 93 71 l-6 38
-79 -1 c-43 -1 -76 0 -74 3 2 2 31 12 64 23 72 23 46 24 -61 1z"/>
<path d="M3316 1863 c-1 -1 -24 -5 -51 -8 -28 -3 -59 -8 -70 -10 -11 -2 -49
-7 -85 -11 -123 -12 -88 -19 101 -19 119 0 189 4 190 10 0 5 2 18 4 28 3 14
-4 17 -42 15 -24 -2 -46 -4 -47 -5z"/>
<path d="M2297 1777 c-2 -18 -4 -33 -3 -34 3 -4 79 -12 161 -18 l80 -5 -80 31
c-44 17 -96 37 -116 44 l-37 13 -5 -31z"/>
<path d="M3295 1729 c-50 -9 -102 -16 -182 -25 -35 -3 -63 -9 -63 -13 0 -3 81
-6 180 -6 l180 0 0 28 c0 26 -2 28 -37 25 -21 -1 -56 -5 -78 -9z"/>
<path d="M2286 1658 c-3 -17 -5 -32 -3 -34 3 -3 43 -10 102 -18 22 -3 60 -8
85 -11 58 -8 52 -4 -50 40 -138 60 -127 58 -134 23z"/>
<path d="M2922 1589 c-18 -12 -45 -42 -59 -67 -26 -44 -27 -50 -29 -226 -1
-100 -2 -184 -3 -188 0 -5 -14 -8 -31 -8 -24 0 -30 -4 -30 -23 l0 -22 223 0
c220 0 222 0 225 22 3 17 -2 22 -25 25 l-28 3 -1 185 c-1 193 -7 225 -47 268
-51 56 -136 69 -195 31z m134 -44 c55 -35 59 -54 60 -257 l1 -188 -117 0 -118
0 2 189 c1 175 3 192 22 218 25 34 78 63 106 58 11 -3 31 -11 44 -20z"/>
<path d="M3347 1604 c-3 -3 -124 -18 -186 -23 -10 -1 -11 -4 -3 -14 8 -9 47
-12 139 -12 l128 0 0 28 c1 26 -2 27 -37 25 -21 -1 -40 -3 -41 -4z"/>
<path d="M2270 1526 c0 -20 3 -36 8 -37 4 0 14 -2 22 -4 43 -8 193 -26 196
-22 3 2 -139 65 -213 94 -9 4 -13 -6 -13 -31z"/>
<path d="M3354 1474 c-5 -1 -39 -5 -75 -9 -46 -4 -66 -10 -66 -20 0 -20 11
-22 121 -21 l100 1 1 28 c2 26 -1 27 -35 25 -20 -1 -40 -3 -46 -4z"/>
<path d="M2259 1437 c0 -1 -3 -17 -5 -34 -4 -23 -1 -33 8 -34 7 0 20 -2 28 -3
18 -4 99 -15 160 -22 25 -3 43 -4 40 -1 -6 6 -229 96 -231 94z"/>
<path d="M3389 1356 c-2 -2 -26 -7 -54 -10 -27 -4 -59 -9 -70 -11 -11 -2 -23
-4 -27 -4 -5 -1 -8 -9 -8 -19 0 -17 7 -18 73 -15 134 7 131 6 132 36 2 22 -3
27 -20 27 -12 0 -24 -2 -26 -4z"/>
<path d="M2242 1280 c-1 -16 1 -30 5 -31 10 -1 35 -5 141 -25 46 -9 85 -14 87
-12 3 3 -110 51 -220 94 -6 3 -12 -9 -13 -26z"/>
<path d="M3360 1219 c-19 -4 -55 -10 -80 -13 -25 -2 -46 -5 -47 -5 -2 -1 -3
-9 -3 -19 0 -17 7 -19 78 -15 143 7 137 6 140 36 3 25 0 27 -25 25 -15 -1 -44
-5 -63 -9z"/>
<path d="M2230 1156 c0 -38 3 -40 80 -51 25 -4 54 -9 65 -11 52 -10 99 -15 95
-11 -5 5 -231 107 -237 107 -2 0 -3 -15 -3 -34z"/>
<path d="M3351 1088 c-61 -9 -66 -12 -58 -30 3 -9 28 -13 83 -13 79 0 79 0 82
28 4 31 2 31 -107 15z"/>
<path d="M2216 1058 c-8 -24 -14 -58 -11 -58 1 0 55 -9 120 -20 65 -12 122
-19 126 -18 7 2 -161 82 -222 106 -5 2 -11 -2 -13 -10z"/>
<path d="M3407 973 c-3 -3 -49 -10 -112 -19 -27 -3 -59 -8 -70 -10 -11 -3 -36
-7 -55 -10 -19 -4 -42 -8 -50 -9 -8 -2 -27 -4 -42 -4 -16 -1 -28 -5 -28 -9 0
-8 384 -5 408 3 6 2 12 18 12 35 0 28 -3 30 -30 28 -17 -1 -32 -3 -33 -5z"/>
<path d="M2205 925 c-3 -8 -7 -21 -9 -29 -4 -11 10 -18 52 -26 31 -6 88 -17
126 -25 79 -17 94 -14 39 8 -21 8 -75 31 -121 51 -67 29 -84 33 -87 21z"/>
<path d="M3018 903 c7 -3 16 -2 19 1 4 3 -2 6 -13 5 -11 0 -14 -3 -6 -6z"/>
<path d="M3360 834 c-36 -7 -87 -15 -115 -19 -61 -9 -71 -10 -115 -19 -19 -3
-48 -8 -64 -11 -56 -8 -36 -13 41 -9 154 9 229 12 300 13 62 1 71 3 68 19 -2
9 -4 23 -4 29 -1 14 -18 14 -111 -3z"/>
<path d="M2188 789 c-5 -33 6 -44 57 -52 17 -2 68 -12 113 -22 46 -9 86 -14
90 -11 3 3 1 6 -5 6 -6 0 -63 25 -128 55 -64 30 -118 55 -119 55 -2 0 -6 -14
-8 -31z"/>
<path d="M3280 689 c-85 -14 -156 -26 -157 -27 -2 -1 -14 -2 -28 -2 -14 0 -25
-4 -25 -9 0 -4 19 -7 43 -5 23 2 116 6 207 10 91 3 167 8 169 10 2 1 1 14 -3
28 -7 30 4 31 -206 -5z"/>
<path d="M2170 665 l0 -33 127 -31 c70 -16 129 -29 130 -27 2 2 -25 16 -59 31
-35 15 -93 43 -130 61 l-68 32 0 -33z"/>
<path d="M3023 643 c9 -2 23 -2 30 0 6 3 -1 5 -18 5 -16 0 -22 -2 -12 -5z"/>
<path d="M1547 571 c-4 -17 -3 -21 5 -13 5 5 8 16 6 23 -3 8 -7 3 -11 -10z"/>
<path d="M3380 575 c-41 -7 -91 -15 -110 -18 -136 -19 -200 -32 -200 -40 0 -5
12 -6 28 -3 15 3 110 8 212 11 101 3 186 7 188 9 1 2 0 15 -4 30 -7 29 -7 29
-114 11z"/>
<path d="M2159 558 c0 -7 -2 -23 -5 -35 -2 -13 -3 -23 -1 -23 2 0 61 -11 132
-25 71 -13 130 -23 132 -21 4 3 -239 116 -250 116 -4 0 -7 -6 -8 -12z"/>
<path d="M3028 513 c6 -2 18 -2 25 0 6 3 1 5 -13 5 -14 0 -19 -2 -12 -5z"/>
<path d="M3459 466 c-2 -2 -22 -7 -44 -10 -23 -4 -52 -8 -65 -11 -48 -9 -206
-36 -243 -41 -138 -20 -61 -23 213 -9 41 2 99 4 128 4 l52 1 0 35 c0 27 -4 35
-18 35 -10 0 -21 -2 -23 -4z"/>
<path d="M2146 427 c-13 -48 -17 -45 167 -87 139 -32 142 -34 -93 77 -30 15
-58 28 -61 30 -4 1 -9 -7 -13 -20z"/>
<path d="M3479 336 c-2 -2 -29 -7 -59 -11 -30 -3 -62 -8 -70 -10 -19 -6 -182
-34 -235 -41 -49 -7 -69 -23 -23 -19 28 3 110 8 308 21 25 1 59 3 76 3 27 1
32 5 36 31 4 23 1 30 -12 30 -9 0 -19 -2 -21 -4z"/>
<path d="M2130 293 c0 -29 4 -33 38 -42 20 -6 64 -18 97 -26 93 -26 129 -34
132 -31 2 1 -58 32 -132 67 l-135 65 0 -33z"/>
<path d="M3489 206 c-2 -2 -24 -7 -49 -10 -25 -3 -54 -8 -65 -10 -60 -11 -158
-27 -185 -31 -71 -10 -111 -19 -116 -26 -3 -5 10 -7 28 -4 18 2 76 7 128 10
307 17 303 16 293 56 -5 17 -23 25 -34 15z"/>
<path d="M2117 181 c3 -13 43 -33 136 -69 72 -28 132 -50 133 -49 4 4 -253
137 -264 137 -5 0 -8 -8 -5 -19z"/>
<path d="M3038 123 c7 -3 16 -2 19 1 4 3 -2 6 -13 5 -11 0 -14 -3 -6 -6z"/>
<path d="M3499 76 c-2 -2 -29 -7 -59 -10 -30 -4 -66 -8 -80 -11 -14 -2 -77
-11 -140 -20 -63 -9 -117 -19 -120 -22 -3 -3 18 -2 45 1 83 11 172 20 295 31
91 8 103 11 95 26 -6 9 -28 12 -36 5z"/>
</g>
</svg>
